<?xml version="1.0" encoding="UTF-8"?>
<svg xmlns="http://www.w3.org/2000/svg" width="1120" height="770" viewBox="0 0 1120 770">
<title>blade_4_bgcolor</title>
<defs><linearGradient id="xui_grad_103" x1="0%" y1="0%" x2="100%" y2="0%" gradientTransform="translate(0 -0.501389) scale(1.55556 0.999999) rotate(-90 .5 .5)"><stop offset="0%" stop-color="#0f0f6e" stop-opacity="1"/><stop offset="16.4706%" stop-color="#0f529f" stop-opacity="1"/><stop offset="79.6079%" stop-color="#0f72c7" stop-opacity="1"/><stop offset="100%" stop-color="#0f2886" stop-opacity="1"/></linearGradient><linearGradient id="xui_grad_104" x1="0%" y1="0%" x2="100%" y2="0%" gradientTransform="translate(0 -0.501389) scale(1.55556 0.999999) rotate(-90 .5 .5)"><stop offset="0%" stop-color="#0f0f6e" stop-opacity="1"/><stop offset="16.4706%" stop-color="#1869b4" stop-opacity="1"/><stop offset="79.6079%" stop-color="#0f72c7" stop-opacity="1"/><stop offset="100%" stop-color="#0f2886" stop-opacity="1"/></linearGradient></defs>
<path d="M 0 0 C 0 0 0 0 75 0 C 75 0 75 0 75 575 C 75 575 75 575 0 575 C 0 575 0 575 0 0 Z" fill="url(#xui_grad_103)" fill-opacity="1" stroke="none" stroke-opacity="1"/><path d="M 0 0 C 0 0 0 0 75 0 C 75 0 75 0 75 575 C 75 575 75 575 0 575 C 0 575 0 575 0 0 Z" fill="url(#xui_grad_104)" fill-opacity="0.7" stroke="none" stroke-opacity="1"/>
</svg>
